<svg id="Layer_1" data-name="Layer 1" xmlns="http://www.w3.org/2000/svg" viewBox="0 0 125 118"><defs><style>.cls-1,.cls-3{fill:#d1161b;}.cls-2,.cls-4{fill:#ed731b;}.cls-3{stroke:#d1161b;}.cls-3,.cls-4{stroke-miterlimit:10;}.cls-4{stroke:#ed731b;}</style></defs><path class="cls-1" d="M19,67.38H9.62a56.27,56.27,0,0,0,44.73,44.9v-9.44A47,47,0,0,1,19,67.38Z" transform="translate(-2.32 -1.6)"/><path class="cls-1" d="M54.41,11V1.6A56.3,56.3,0,0,0,9.63,46.45H19A47.09,47.09,0,0,1,54.41,11Z" transform="translate(-2.32 -1.6)"/><path class="cls-1" d="M110.62,46.51H120C115.78,23.8,99.23,5.9,76.58,1.61v9.44C94.13,15.06,106.64,28.91,110.62,46.51Z" transform="translate(-2.32 -1.6)"/><path class="cls-1" d="M75.23,102.86v9.43A56.31,56.31,0,0,0,120,67.45H110.6A47.06,47.06,0,0,1,75.23,102.86Z" transform="translate(-2.32 -1.6)"/><path class="cls-2" d="M8.89,51.75H2.32V62.36H8.9c-.17-1.78-.26-3.59-.26-5.41S8.73,53.47,8.89,51.75Z" transform="translate(-2.32 -1.6)"/><path class="cls-2" d="M18.14,51.75H8.89c-.16,1.72-.25,3.45-.25,5.2s.09,3.63.26,5.41h9.27A48.36,48.36,0,0,1,17.85,57,49.57,49.57,0,0,1,18.14,51.75Z" transform="translate(-2.32 -1.6)"/><path class="cls-2" d="M23.42,51.75H18.14a49.57,49.57,0,0,0-.29,5.2,48.36,48.36,0,0,0,.32,5.41h5.25Z" transform="translate(-2.32 -1.6)"/><path class="cls-2" d="M60.06,113v6.58h9.75V113a48.27,48.27,0,0,1-5,.26A47,47,0,0,1,60.06,113Z" transform="translate(-2.32 -1.6)"/><path class="cls-2" d="M60.06,103.74V113a47,47,0,0,0,4.77.25,48.27,48.27,0,0,0,5-.26v-9.3a39.14,39.14,0,0,1-9.75,0Z" transform="translate(-2.32 -1.6)"/><path class="cls-2" d="M60.06,98.45v5.29a39.14,39.14,0,0,0,9.75,0V98.45Z" transform="translate(-2.32 -1.6)"/><path class="cls-2" d="M120.76,62.14h6.56V51.54h-6.58c.17,1.78.26,3.58.26,5.41S120.91,60.43,120.76,62.14Z" transform="translate(-2.32 -1.6)"/><path class="cls-2" d="M111.79,57a47,47,0,0,1-.29,5.19h9.26c.15-1.71.24-3.44.24-5.19s-.09-3.63-.26-5.41h-9.27A46,46,0,0,1,111.79,57Z" transform="translate(-2.32 -1.6)"/><path class="cls-2" d="M111.47,51.54h-5.25v10.6h5.28a47,47,0,0,0,.29-5.19A46,46,0,0,0,111.47,51.54Z" transform="translate(-2.32 -1.6)"/><path class="cls-3" d="M64.89,65.4a4.87,4.87,0,0,0-2.09,1.1,5,5,0,0,0-1.13,1.71,5.21,5.21,0,0,0-.38,2,3.83,3.83,0,0,0,.6,2.09,5.05,5.05,0,0,0,1.37,1.48,7.82,7.82,0,0,0,1.78.92,5.81,5.81,0,0,0,2,.38,7.33,7.33,0,0,0,2.08-.31A4.12,4.12,0,0,0,70.69,74a4.65,4.65,0,0,0,1.74-3.72A5.51,5.51,0,0,0,72,68.21a4.4,4.4,0,0,0-1.07-1.64A5.78,5.78,0,0,0,69,65.47a6,6,0,0,0-2-.42A8.15,8.15,0,0,0,64.89,65.4Z" transform="translate(-2.32 -1.6)"/><path class="cls-4" d="M60.9,33.76a28.16,28.16,0,0,0-3.26.89,16.17,16.17,0,0,0-1.61.62,8.5,8.5,0,0,1-1.5.52,11.53,11.53,0,0,1-1.87-.57,23.27,23.27,0,0,1-2.28-1,15.83,15.83,0,0,1-2-1.19c-.66-.45-1.37-.95-2.13-1.51a13.07,13.07,0,0,1-1.81-1.71,2.78,2.78,0,0,1-.88-1.51,1.48,1.48,0,0,1,.62-1.14,2.16,2.16,0,0,1,1.66-.42c.89.07,2.26.16,4.09.26s3.33.16,4.51.16c1.58,0,3.76-.09,6.52-.26s5-.36,6.74-.57c1.38-.14,2.85-.33,4.4-.57A28,28,0,0,0,75.77,25a25.23,25.23,0,0,0,2.44-.83c.86-.35,1.71-.73,2.53-1.15a6.06,6.06,0,0,1,2.18,0c.9.14,1.69.28,2.38.42a6.34,6.34,0,0,1,2,.67,10.46,10.46,0,0,1,1.56,1.1,5,5,0,0,1,.93,1.4,3.91,3.91,0,0,1,.41,1.61,3.08,3.08,0,0,1-.31,1.3,6.2,6.2,0,0,1-.62,1.09,3.13,3.13,0,0,1-1.14.67,6.89,6.89,0,0,1-1.55.37,21.83,21.83,0,0,1-2.23.15c-1,0-1.81.05-2.44.05l-3.52.05c-1.66,0-2.87.09-3.62.16-1.25.07-2.94.21-5.08.42S66,32.85,65,33C63.68,33.19,62.32,33.45,60.9,33.76Z" transform="translate(-2.32 -1.6)"/><path class="cls-4" d="M73.07,15.18a7.78,7.78,0,0,1,1.43,1.58,5.89,5.89,0,0,1,.61,1.83,2.38,2.38,0,0,1-.47,1.92,2.69,2.69,0,0,1-1.55.94,5.37,5.37,0,0,1-2.19.12,11.53,11.53,0,0,1-3.79-1.38A26.61,26.61,0,0,1,64,18.27a13.77,13.77,0,0,1-2.17-2,11.41,11.41,0,0,1-1.64-2.43,12.22,12.22,0,0,1-.87-2.24,18,18,0,0,1-.51-2.43c-.07-.51-.13-1-.17-1.44a6.89,6.89,0,0,1,.06-1.6A3.92,3.92,0,0,1,59,4.68a1.45,1.45,0,0,1,.91-.91,1.58,1.58,0,0,1,1.32.59,12.86,12.86,0,0,1,1.08,1.21,19.38,19.38,0,0,0,1.4,1.68q.84.93,1.83,1.89l2.58,2.23a32.6,32.6,0,0,0,2.92,2.24A15.72,15.72,0,0,1,73.07,15.18Z" transform="translate(-2.32 -1.6)"/><path class="cls-4" d="M79.57,43.43a12.24,12.24,0,0,0-3.32-4.24,13.7,13.7,0,0,0-5-2.41,22.82,22.82,0,0,0-5.4-.68,14.84,14.84,0,0,0-5.09,1,13,13,0,0,0-4.35,2.5,9.85,9.85,0,0,0-2.77,4.28,14.42,14.42,0,0,0-.87,4.64,11.34,11.34,0,0,0,1.41,5.05,11.52,11.52,0,0,0,3.41,4.23,18.07,18.07,0,0,0,9.8,3.09,17.9,17.9,0,0,0,4.72-.77,16.8,16.8,0,0,0,4.54-2,8.69,8.69,0,0,0,3.22-4.18,13.58,13.58,0,0,0,1.13-5A12.17,12.17,0,0,0,79.57,43.43ZM72.9,50.87a5.63,5.63,0,0,1-1.53,1.94,5.06,5.06,0,0,1-1.85.91,8.7,8.7,0,0,1-2.48.36,6.87,6.87,0,0,1-2.39-.45,9.36,9.36,0,0,1-2.12-1.09,6.16,6.16,0,0,1-1.62-1.76,4.52,4.52,0,0,1-.72-2.49,6.39,6.39,0,0,1,.45-2.39,6.05,6.05,0,0,1,1.35-2,6,6,0,0,1,2.48-1.31,9.75,9.75,0,0,1,2.48-.4,7.23,7.23,0,0,1,2.44.49A6.85,6.85,0,0,1,71.64,44,5.22,5.22,0,0,1,72.9,45.9a6.5,6.5,0,0,1,.54,2.48A5.68,5.68,0,0,1,72.9,50.87Z" transform="translate(-2.32 -1.6)"/><path class="cls-4" d="M53.55,73A17.82,17.82,0,0,1,56.15,74a7.52,7.52,0,0,1,2.52,1.68,3.89,3.89,0,0,1,1.18,2.07,7.7,7.7,0,0,1,0,1.34c0,.65-.09,1.13-.12,1.45a11.54,11.54,0,0,0,.09,2.09,9,9,0,0,0,.33,1.49,4.22,4.22,0,0,0,1.7,1.56,6.14,6.14,0,0,0,4.13.44,20.54,20.54,0,0,0,2.53-.51c.76-.21,1.53-.43,2.29-.67s1.65-.58,2.67-1l2.86-1.24c.87-.44,1.82-.89,2.84-1.32a18.59,18.59,0,0,1,2.26-.86,12.85,12.85,0,0,1,2.1-.51,2.71,2.71,0,0,1,1.9.39,5.93,5.93,0,0,1,1.39,1.33,4.1,4.1,0,0,1,.82,1.89,3.59,3.59,0,0,1-1.28,2.77,16.57,16.57,0,0,1-3.24,2.67,20.77,20.77,0,0,1-3.17,1.71q-1.87.85-3.63,1.5a29.94,29.94,0,0,1-3.7,1c-1.65.37-2.68.59-3.11.65a14,14,0,0,1-3.08.08,13.57,13.57,0,0,1-2.95-.53,15.52,15.52,0,0,1-2.52-1.25,17.51,17.51,0,0,1-2.12-1.5c-.59-.55-1.2-1.15-1.83-1.79a20.92,20.92,0,0,1-1.63-1.81q-.78-.94-1.5-1.74c-.48-.54-1-1.09-1.49-1.65a9.53,9.53,0,0,0-1.57-1.44L49,81c-.57-.42-1.23-.93-2-1.52a11.21,11.21,0,0,0-1.69-1.19c-.73-.53-1.48-1.12-2.27-1.77a3.2,3.2,0,0,1-1.29-1.81,1.91,1.91,0,0,1,.69-1.59A4.59,4.59,0,0,1,45.22,72a15.79,15.79,0,0,1,2.49,0,19.5,19.5,0,0,1,3.19.34A20.06,20.06,0,0,1,53.55,73Z" transform="translate(-2.32 -1.6)"/></svg>